<svg xmlns="http://www.w3.org/2000/svg" width="465.034" height="385.256" viewBox="0 0 465.034 385.256"><g transform="translate(890.791 -4286.2)"><g transform="translate(-890.791 4310.797)"><g transform="translate(0 71.069)"><path d="M740.614,1130.261c-7.693-22.916-22.467-42.038-40.213-51.45-18.485-9.8-39.71-6.235-59.18-9.519-16.91-2.852-29.111-12.739-39.208-30.316-9.674-16.842-18.349-35.495-34.167-43.285-12.5-6.156-26.709-4.449-39.131,1.965-22.89,11.82-40.179,36.953-54.74,61.99-13.294,22.859-24.137,47.891-48.727,48.708-24.605.817-48.03-17.565-72.8-12.694-32.743,6.438-60.012,42.135-65.726,84.633-5.355,39.83,8.083,78.46,31.169,101.157H714.7C743.793,1241.035,759.058,1185.2,740.614,1130.261Z" transform="translate(-285.545 -991.86)" fill="#fff"/><g transform="translate(16.626 8.036)"><path d="M565.921,1425.879h1.43A109.656,109.656,0,0,0,590,1387.027c8-23.79,7.665-48.756-.95-70.3-4.354-10.888-10.64-21.035-16.72-30.849-6.166-9.952-12.541-20.243-16.868-31.271a69.757,69.757,0,0,1-3.906-14.451c-.358-.047-.717-.085-1.076-.129a70.713,70.713,0,0,0,4.009,14.962c4.361,11.117,10.762,21.449,16.953,31.441,6.056,9.774,12.318,19.883,16.637,30.686,8.522,21.315,8.853,46.026.93,69.581A108.455,108.455,0,0,1,565.921,1425.879Z" transform="translate(-481.339 -1144.325)" fill="#fff"/><path d="M985.356,1247.316a175.351,175.351,0,0,0,20.14,5.615c.111-.329.219-.661.329-.992a173.009,173.009,0,0,1-20.328-5.646c-10.7-3.509-22.278-7.307-33.762-7.307a41.447,41.447,0,0,0-20.991,5.338,39.451,39.451,0,0,0-7.428,5.559c-6.144-4.031-12.321-8.433-18.441-13.264,4.44-5.149,8.927-10.192,13.462-15.067,33.665-36.188,64.734-56.7,94.75-62.527-.06-.338-.123-.677-.185-1.015-30.1,5.871-61.233,26.439-94.952,62.685-4.631,4.979-9.213,10.132-13.744,15.393a226.187,226.187,0,0,1-58.794-70.184c48.048-8.3,96.967-18.753,136.915-59.855,1.517-1.561,3.2-3.4,4.938-5.489-.193-.211-.387-.418-.582-.625-1.668,1.99-3.277,3.746-4.734,5.245-39.938,41.091-88.946,51.466-137.057,59.763a244.67,244.67,0,0,1-22.03-57.662c-8.474-34.556-8.027-68.468,1.228-93.039.4-1.067.826-2.118,1.264-3.158-.387.273-.77.556-1.152.84q-.357.89-.7,1.793c-9.357,24.845-9.822,59.082-1.275,93.934a246.011,246.011,0,0,0,21.86,57.43q-4.177.719-8.348,1.425c-10.018,1.7-20.378,3.463-30.438,5.456-3.672.728-7.406,1.577-11.121,2.64-7.965-25.878-16.714-51.124-28.024-72.775-.162.248-.326.489-.49.734,11.213,21.487,19.908,46.544,27.824,72.241-16.205,4.758-31.942,13.7-40.343,34.52-7.847,19.441-7.84,46.315.021,79.876q.408,1.74.836,3.441h.727c-.311-1.242-.621-2.5-.925-3.8-7.787-33.244-7.815-59.813-.083-78.97,8.3-20.57,23.952-29.395,40.067-34.1,2.812,9.157,5.528,18.388,8.228,27.563l.294,1c9.375,31.861,19.072,62.608,31.768,88.3h.847c-12.812-25.74-22.563-56.672-32-88.731l-.294-1c-2.677-9.1-5.37-18.25-8.157-27.33,3.644-1.037,7.306-1.868,10.908-2.581,10.053-1.992,20.41-3.753,30.425-5.454q4.388-.745,8.791-1.5a227.009,227.009,0,0,0,59,70.743c-11.548,13.446-22.781,27.593-33.748,41.406-3.8,4.783-7.639,9.615-11.51,14.446h1.076c3.652-4.561,7.279-9.122,10.864-13.637,11.044-13.909,22.357-28.157,33.987-41.682,6.085,4.819,12.228,9.214,18.339,13.239-8.361,8.186-15.175,20.862-19.3,36.255-.516,1.927-.966,3.873-1.383,5.826h.715c.394-1.819.816-3.632,1.3-5.428,4.131-15.434,11-28.1,19.428-36.154a358.984,358.984,0,0,0,48.3,26.039l.543.247c6.08,2.768,12.3,5.6,17.8,10.159.154-.27.308-.539.461-.81-5.59-4.669-11.9-7.544-18.068-10.351l-.543-.247a359.4,359.4,0,0,1-47.78-25.705,38.467,38.467,0,0,1,6.892-5.083C948.594,1235.257,968.125,1241.664,985.356,1247.316Z" transform="translate(-570.886 -1011.084)" fill="#fff"/><path d="M353.667,1362.747c4.616,18.894,2.557,39.3-5.65,55.981a96.372,96.372,0,0,1-22.7,29.317c.19.3.385.589.578.883a97.445,97.445,0,0,0,23.059-29.739c8.313-16.9,10.4-37.563,5.727-56.69-3.651-14.945-10.992-27.6-21.133-36.762q-.339.4-.674.8C342.848,1335.556,350.07,1348.023,353.667,1362.747Z" transform="translate(-325.318 -1194.208)" fill="#fff"/></g></g><path d="M867.432,830.151c9.1,9.3,13.184,24.975,8.165,39.425-4.86,13.991-15.515,25.58-28.316,33.03-10.3,5.994-23.734,9.3-33.864,3.024-7.569-4.691-11.495-13.894-11.713-22.8s2.776-17.578,6.476-25.678c5.216-11.418,12.236-22.49,22.693-29.433C845.288,818.152,858.681,821.209,867.432,830.151Z" transform="translate(-644.263 -821.845)" fill="#fff"/></g><g transform="translate(-659.239 4286.2)"><g transform="translate(0)"><path d="M1174.149,458.641a81.162,81.162,0,0,0-17.944-31.18q-12.869-14.236-35.1-23.523t-56.5-9.3a221.043,221.043,0,0,0-55.714,7.372q-28.407,7.4-49.3,21.066l18.136,49.791-9.72,7.874,14.1,4.143q20.873-10.925,38.032-15.866a131.5,131.5,0,0,1,36.428-4.914q19.278,0,29.191,9.3a29.667,29.667,0,0,1,9.9,22.437,43.054,43.054,0,0,1-10.167,28.171q-10.2,12.313-22.513,24.894-8.553,8.735-16.6,18.039a129.494,129.494,0,0,0-14.195,19.979,108.633,108.633,0,0,0-9.9,22.971,94.283,94.283,0,0,0-3.749,27.619c0,3.294.07,7.212.261,11.77.032.841.076,1.661.127,2.47h-13.327l14.543,9.834h70.711a46.971,46.971,0,0,1-.541-7.657V647.36a47.5,47.5,0,0,1,3.749-18.323,94.763,94.763,0,0,1,9.382-17.237,127.307,127.307,0,0,1,12.59-15.581q6.958-7.4,13.392-13.961,8.554-8.734,17.665-18.59a146.135,146.135,0,0,0,16.078-20.781,116.756,116.756,0,0,0,11.509-23.808,83.813,83.813,0,0,0,4.568-28.171A112.657,112.657,0,0,0,1174.149,458.641Z" transform="translate(-945.759 -393.407)" fill="#9a6e3a"/><path d="M1007.927,457.627a132.526,132.526,0,0,0-36,4.756q-16.958,4.782-37.586,15.355l-22.248-59.817q20.654-13.236,48.719-20.387a222.809,222.809,0,0,1,55.061-7.135q33.863,0,55.836,9T1106.4,422.16a78.168,78.168,0,0,1,17.733,30.176,106.95,106.95,0,0,1,5.032,31.227,79.583,79.583,0,0,1-4.515,27.263,112.018,112.018,0,0,1-11.374,23.041,141.86,141.86,0,0,1-15.889,20.111q-9,9.539-17.457,17.992-6.359,6.359-13.235,13.511a123.727,123.727,0,0,0-12.442,15.079,91.133,91.133,0,0,0-9.272,16.682,45.145,45.145,0,0,0-3.705,17.733v6.359a44.535,44.535,0,0,0,.534,7.41H971.927a74.068,74.068,0,0,1-1.327-11.908c-.19-4.412-.259-8.2-.259-11.391a89.483,89.483,0,0,1,3.705-26.729,104,104,0,0,1,9.789-22.231,125.359,125.359,0,0,1,14.028-19.336q7.936-9,16.406-17.458,12.176-12.176,22.248-24.092a41.147,41.147,0,0,0,10.047-27.263q0-12.718-9.788-21.714T1007.927,457.627Z" transform="translate(-912.092 -390.399)" fill="#19294e"/></g><g transform="translate(55.335 296.876)"><path d="M1230.368,1450.9q0,19.123-12.381,29.525a42.857,42.857,0,0,1-56.012,0q-12.36-10.41-12.367-29.525t12.367-29.526c12.706-10.722,31.5-13.112,46.378-5.586C1221.553,1422.465,1230.368,1436.026,1230.368,1450.9Z" transform="translate(-1135.775 -1410.957)" fill="#9a6e3a"/><path d="M1182.868,1449.79q0,19.123-12.381,29.526a42.857,42.857,0,0,1-56.012,0q-12.36-10.41-12.367-29.526t12.367-29.525a42.857,42.857,0,0,1,56.012,0Q1182.868,1430.7,1182.868,1449.79Z" transform="translate(-1102.108 -1409.848)" fill="#19294e"/></g></g><g transform="translate(-881.098 4219.577)"><g transform="translate(0 154.933)"><g transform="translate(25.207 171.205)"><g transform="translate(31.056 70.493)"><path d="M496.226,1609.641l4.021,15.5a8.883,8.883,0,0,0,9.282,6.481c13.185-.9,40.581-4.126,56.3-15.715l-4.47-22.343c-21.619-1.221-41.836-.019-59.343,5.875A8.562,8.562,0,0,0,496.226,1609.641Z" transform="translate(-495.961 -1593.136)" fill="#102048"/><path d="M548.63,1633.771a.523.523,0,0,1-.5-.382l-5.4-19.333a.523.523,0,0,1,1.007-.281l5.4,19.333a.522.522,0,0,1-.363.644A.53.53,0,0,1,548.63,1633.771Z" transform="translate(-523.167 -1604.926)" fill="#fff"/><path d="M576.546,1627.521a.523.523,0,0,1-.5-.382l-5.4-19.333a.522.522,0,0,1,1.007-.281l5.4,19.333a.523.523,0,0,1-.363.644A.532.532,0,0,1,576.546,1627.521Z" transform="translate(-539.414 -1601.287)" fill="#fff"/></g><path d="M547.257,1427.694l-50.247,14.913,37.315,51.129L587.9,1498l73.892-31.245L633.711,1424.5Z" transform="translate(-465.516 -1424.498)" fill="#19294e"/><path d="M681.732,1439.884c110.346-32.666,128.08,64.858-44.089,82.611-6.081-6.843-13.188-18.717-16.01-28.642l90.92-42.016Z" transform="translate(-538.044 -1429.588)" fill="#19294e"/><path d="M737.857,1609.489a47.733,47.733,0,0,1-10.106-4.917l-17.734,5.563,4.064,19.292,18.423,3.743C738.116,1622.9,738.444,1614.475,737.857,1609.489Z" transform="translate(-589.482 -1529.298)" fill="#f9b384"/><path d="M621.479,1514.881l-.788-1.355c18.967-11.024,67.552-37.506,108.946-45.316l.29,1.541C688.773,1477.516,640.376,1503.9,621.479,1514.881Z" transform="translate(-537.496 -1449.938)" fill="#9a6e3a"/><path d="M503.408,1428.6c-102.71-19.528-129.311,79.178,42.858,96.932a62.539,62.539,0,0,0,13.67-24.854c-26.447-17.7-56.016-34.515-88.424-50.537Z" transform="translate(-421.667 -1425.404)" fill="#19294e"/><path d="M613.4,1522.791c-4.886-3.11-9.977-6.4-15.367-9.877-27.057-17.469-57.724-37.269-83.778-48.56l.624-1.438c26.173,11.342,56.9,31.179,84,48.681,5.388,3.479,10.477,6.765,15.358,9.871Z" transform="translate(-475.551 -1446.856)" fill="#9a6e3a"/><path d="M435.027,1528.688l-1.372-.758c3.855-6.98,10.031-11.688,18.354-13.992l.418,1.51C444.414,1517.667,438.723,1522,435.027,1528.688Z" transform="translate(-428.644 -1476.551)" fill="#9a6e3a"/><path d="M925.544,1514.472c-3.695-6.689-9.387-11.02-17.4-13.24l.418-1.51c8.324,2.3,14.5,7.013,18.354,13.992Z" transform="translate(-704.79 -1468.277)" fill="#9a6e3a"/><path d="M695.136,1620.927l-1.146-1.069c8.216-8.8,13.262-18.089,15.427-28.4l1.534.322C708.726,1602.378,703.553,1611.913,695.136,1620.927Z" transform="translate(-580.155 -1521.667)" fill="#9a6e3a"/><g transform="translate(143.022 71.92)"><path d="M820.39,1599.075c-13.159-8.13-38.67,5.918-45.074,6.628a15.415,15.415,0,0,1-6.15-.882c.587,4.987.259,13.415-5.353,23.68l3.129.636s21.633,7.93,44.582,3.314C832.7,1628.19,830.735,1605.466,820.39,1599.075Z" transform="translate(-763.812 -1596.551)" fill="#102048"/><path d="M852.249,1634.559a.533.533,0,0,1-.158-.024.522.522,0,0,1-.341-.655c1.563-4.951,2.246-14.689-2.283-21.23a.523.523,0,0,1,.859-.6c4.742,6.85,4.045,16.993,2.42,22.139A.523.523,0,0,1,852.249,1634.559Z" transform="translate(-813.608 -1605.443)" fill="#fff"/><path d="M827.562,1639.247a.531.531,0,0,1-.158-.024.522.522,0,0,1-.341-.656c1.563-4.951,2.245-14.689-2.283-21.23a.522.522,0,0,1,.859-.595c4.742,6.849,4.046,16.993,2.42,22.139A.522.522,0,0,1,827.562,1639.247Z" transform="translate(-799.241 -1608.171)" fill="#fff"/></g></g><g transform="translate(58.232 0.922)"><path d="M531.216,1063.345s25.868-22,24.909-26.177c-.684-2.987-8.012,1.394-8.012,1.394s10.276-12.192,9.754-13.673c-.934-2.646-8.041,2.286-8.041,2.286s4.8-6.914,2.507-8.041-7.3,3.134-7.3,3.134,2.925-3.839,1.551-4.846-7.3,3.134-7.3,3.134,2.128-4.841-2.393-3.005-36.214,30.92-36.214,30.92Z" transform="translate(-500.671 -1017.136)" fill="#f9b384"/><g transform="translate(29.111 2.898)"><path d="M582.33,1054.537a.521.521,0,0,1-.352-.137c-4.44-4.057-6.4-5.041-11.3-6.548a.522.522,0,1,1,.307-1c5.076,1.561,7.1,2.58,11.694,6.776a.523.523,0,0,1-.353.908Z" transform="translate(-570.312 -1037.316)" fill="#e28b6d"/><path d="M579.69,1082.466a.539.539,0,0,1-.073-.005.523.523,0,0,1-.445-.59c.508-3.638,1.653-5.91,3.5-6.949,1.579-.888,3.633-.8,6.107.271a.522.522,0,1,1-.414.959c-2.157-.932-3.9-1.039-5.18-.319-1.522.856-2.524,2.936-2.978,6.182A.522.522,0,0,1,579.69,1082.466Z" transform="translate(-575.466 -1053.313)" fill="#e28b6d"/><path d="M576.772,1031.232a.522.522,0,0,1-.358-.9l6.49-6.118a.522.522,0,1,1,.717.76l-6.491,6.118A.518.518,0,0,1,576.772,1031.232Z" transform="translate(-573.768 -1024.07)" fill="#e28b6d"/><path d="M591.147,1035.706a.522.522,0,0,1-.377-.884l6.235-6.5a.522.522,0,0,1,.754.723l-6.235,6.5A.522.522,0,0,1,591.147,1035.706Z" transform="translate(-582.134 -1026.453)" fill="#e28b6d"/><path d="M605.835,1046.2a.522.522,0,0,1-.382-.879l4.892-5.247a.523.523,0,0,1,.765.713l-4.892,5.247A.523.523,0,0,1,605.835,1046.2Z" transform="translate(-590.682 -1033.285)" fill="#e28b6d"/></g></g><g transform="translate(0 26.466)"><path d="M661.276,1306.017l-94.576,3.658-10.45-86.215s31.662-30.031,43.843-41.09l20.564-1.055C684.459,1210.316,674.012,1246.537,661.276,1306.017Z" transform="translate(-474.785 -1138.23)" fill="#9a6e3a"/><path d="M710.329,1181.315s72.994,6.242,96.006,56.253c22.517,48.935-70.017,66.36-70.017,66.36Z" transform="translate(-564.457 -1138.23)" fill="#9a6e3a"/><path d="M423.8,1132.046l30.164-36.707-28.207-17.095c-11.766,8.181-34.52,26.712-53.8,47.7a39.825,39.825,0,0,0-9.255,16,34.426,34.426,0,0,0-.885,15.021h0a29,29,0,0,0,25.628,24.279c11.492,1.345,55.387-2.09,90.918-12.541l10.45-40.334C483.441,1125.318,443.53,1124.789,423.8,1132.046Z" transform="translate(-361.364 -1078.245)" fill="#9a6e3a"/></g><g transform="translate(15.416 38.607)" opacity="0.8"><path d="M806.3,1208.744l.472-.108c-.33-.2-.661-.385-.992-.576a158.262,158.262,0,0,1-16.309,3.146c-3.27.394-14.194,1.115-17.387-6.163-1.589-3.621-.387-7.648,1.41-10.475l-.783-.224c-1.84,2.994-3.02,7.2-1.345,11.013,3.409,7.775,14.792,7.038,18.2,6.626A161.577,161.577,0,0,0,806.3,1208.744Z" transform="translate(-614.926 -1157.953)" fill="#fff"/><path d="M904.734,1360.328c-3.488-1.347-7.09-2.74-10.877-2.383-6.643.628-12.328,7.2-12.672,14.644-.235,5.077,1.7,10.4,5.4,15.079q.334-.209.665-.42c-3.615-4.548-5.513-9.711-5.285-14.623.328-7.072,5.694-13.308,11.964-13.9,3.6-.334,6.962.959,10.521,2.334,1.27.491,2.562.985,3.874,1.406.068-.253.134-.506.194-.761C907.24,1361.292,905.977,1360.809,904.734,1360.328Z" transform="translate(-679.297 -1253.134)" fill="#fff"/><path d="M446.113,1298.832c-4.557-3.769-11.638-4.776-19.424-2.764a33.52,33.52,0,0,0-16.982,10.055c.269.087.531.185.8.264a32.871,32.871,0,0,1,16.374-9.56c7.538-1.951,14.367-1,18.729,2.608a17.012,17.012,0,0,1,4.605,6.343l.81-.093A17.915,17.915,0,0,0,446.113,1298.832Z" transform="translate(-404.915 -1216.565)" fill="#fff"/><path d="M398.243,1137.719a94.55,94.55,0,0,0,24.557-9.529,26.829,26.829,0,0,0,8.489-6.937,11.914,11.914,0,0,0,2.181-10.61,8.294,8.294,0,0,0-2.126-3.354l-.6.495a7.558,7.558,0,0,1,1.985,3.1,11.134,11.134,0,0,1-2.067,9.9,26.116,26.116,0,0,1-8.249,6.722,92.6,92.6,0,0,1-23.145,9.15Q398.753,1137.188,398.243,1137.719Z" transform="translate(-398.243 -1107.289)" fill="#fff"/></g><g transform="translate(93.818)"><path d="M689.565,1133.616l-.013,1.339-.212,20.788-.026,2.252a12.945,12.945,0,0,1-25.889-.013l-.252-25.69Z" transform="translate(-630.83 -1083.233)" fill="#f9b384"/><path d="M703.276,1138.662l-.212,20.788c-11.553-4.7-16.31-17.211-16.31-17.211Z" transform="translate(-644.554 -1086.941)" fill="#102048"/><path d="M690.406,1049.344c4.14,4.968,16.23,33.123,3.975,42.728-13.791,10.809-34.779-6.956-34.779-6.956l-2.815-32.792,18.217-4.8Z" transform="translate(-627.113 -1033.898)" fill="#f9b384"/><path d="M606.192,1047.559s-40.408,21.075-7.46,81.825a16.549,16.549,0,0,0,21.623,7.4h0a16.389,16.389,0,0,0,7.187-22.889c-5.39-9.575-10.591-21.9-8.371-31.077Z" transform="translate(-585.801 -1033.92)" fill="#19294e"/><circle cx="10.931" cy="10.931" r="10.931" transform="translate(8.749 23.616) rotate(-45)" fill="#19294e"/><path d="M647.761,1051.68c-1.181-6.82-1.9-11.5,4.991-15.01,0,0,24.29,4.416,28.927-4.748s-2.429-23.627-17.224-13.58c-37.87-7.4-42.949,28.044-31.467,39.858l11.333-1.739A4.126,4.126,0,0,0,647.761,1051.68Z" transform="translate(-610.107 -1014.931)" fill="#19294e"/><g transform="translate(48.87 24.309)"><circle cx="1.615" cy="1.615" r="1.615" transform="translate(5.976 10.844)" fill="#102048"/><circle cx="1.615" cy="1.615" r="1.615" transform="translate(16.907 5.461)" fill="#102048"/><path d="M739.442,1104.4a.457.457,0,0,1-.331-.772c.647-.682,1.357-1.64,1.059-2.335-.31-.722-1.619-1.033-2.218-1.033-1.288,0-1.907-2.292-2.018-2.751a.457.457,0,0,1,.889-.215c.235.968.768,2.052,1.129,2.052.617,0,2.5.291,3.058,1.586.4.925-.019,2.044-1.236,3.326A.456.456,0,0,1,739.442,1104.4Z" transform="translate(-722.038 -1086.969)" fill="#102048"/><path d="M734.683,1126.641a.454.454,0,0,1-.255-.079,6.111,6.111,0,0,0-6.141-.313.457.457,0,0,1-.456-.793,6.951,6.951,0,0,1,7.109.349.457.457,0,0,1-.256.836Z" transform="translate(-717.196 -1103.085)" fill="#102048"/><path d="M709.594,1085.107c.919,1.729-.682,2.076-2.558,3.072s-3.8,1.361-4.234.537.727-2.3,2.6-3.3S708.883,1083.768,709.594,1085.107Z" transform="translate(-702.71 -1079.642)" fill="#102048"/><path d="M735.477,1075.429c.4,1.543,1.555.867,3.229.429s3.026-1.279,2.834-2.015-1.706-.978-3.38-.54S735.165,1074.235,735.477,1075.429Z" transform="translate(-721.753 -1073.085)" fill="#102048"/></g><circle cx="4.761" cy="4.761" r="4.761" transform="matrix(0.735, -0.678, 0.678, 0.735, 42.28, 44.032)" fill="#eb5d60" opacity="0.4"/><ellipse cx="6.449" cy="7.328" rx="6.449" ry="7.328" transform="matrix(0.611, -0.792, 0.792, 0.611, 21.185, 44.949)" fill="#f9b384"/><path d="M658.416,1119.269a.457.457,0,0,1-.457-.457,4.006,4.006,0,0,0-1.76-3.338,3.227,3.227,0,0,0-3.005-.4.457.457,0,0,1-.345-.847,4.138,4.138,0,0,1,3.86.488,4.919,4.919,0,0,1,2.164,4.1A.457.457,0,0,1,658.416,1119.269Z" transform="translate(-624.656 -1072.559)" fill="#102048"/></g><g transform="translate(45.551 79.912)"><rect width="24.305" height="1.045" transform="translate(0 17.847) rotate(-47.248)" fill="#102048"/><path d="M787.44,1358.611l-.3-1c12.011-3.661,23.667-8.04,34.23-21.25l.816.652C811.433,1350.458,799.615,1354.9,787.44,1358.611Z" transform="translate(-654.709 -1281.911)" fill="#102048"/></g><g transform="translate(76.762 116.143)"><path d="M653.823,1292.776H551.653a6.941,6.941,0,0,0-6.653,7.2v72.946a6.941,6.941,0,0,0,6.653,7.2h102.17a6.941,6.941,0,0,0,6.653-7.2v-72.946A6.941,6.941,0,0,0,653.823,1292.776Z" transform="translate(-545 -1292.776)" fill="#d3dfff"/><g transform="translate(49.552 36.97)"><path d="M677.122,1383.308a.733.733,0,0,1,.7.76v7.7a.733.733,0,0,1-.7.76H666.334a.733.733,0,0,1-.7-.76v-7.7a.733.733,0,0,1,.7-.76h10.787m0-2.09H666.334a2.824,2.824,0,0,0-2.792,2.85v7.7a2.825,2.825,0,0,0,2.792,2.85h10.787a2.825,2.825,0,0,0,2.792-2.85v-7.7a2.825,2.825,0,0,0-2.792-2.85Z" transform="translate(-663.542 -1381.218)" fill="#1f3c88"/></g></g></g></g></g></svg>